HIERARCHY
ROOT Hips
{
	OFFSET 0.000000 0.000000 0.000000
	CHANNELS 6 Xposition Yposition Zposition Zrotation Xrotation Yrotation
	JOINT RightHip
	{
		OFFSET -0.098679 0.000000 0.000000
		CHANNELS 3 Zrotation Xrotation Yrotation
		JOINT RightKnee
		{
			OFFSET 0.000000 -0.413816 0.000000
			CHANNELS 3 Zrotation Xrotation Yrotation
			JOINT RightAnkle
			{
				OFFSET 0.000000 -0.452914 0.000000
				CHANNELS 3 Zrotation Xrotation Yrotation
				JOINT RightToe
				{
					OFFSET 0.000000 -0.042572 0.122063
					CHANNELS 3 Zrotation Xrotation Yrotation
					JOINT RightToeEnd
					{
						OFFSET 0.000000 0.004481 0.054939
						CHANNELS 3 Zrotation Xrotation Yrotation
						End Site
						{
							OFFSET 0.000000 0.004065 0.049835
						}
					}
				}
			}
		}
	}
	JOINT LeftHip
	{
		OFFSET 0.098679 0.000000 0.000000
		CHANNELS 3 Zrotation Xrotation Yrotation
		JOINT LeftKnee
		{
			OFFSET 0.000000 -0.413816 0.000000
			CHANNELS 3 Zrotation Xrotation Yrotation
			JOINT LeftAnkle
			{
				OFFSET 0.000000 -0.452914 0.000000
				CHANNELS 3 Zrotation Xrotation Yrotation
				JOINT LeftToe
				{
					OFFSET 0.000000 -0.042572 0.122063
					CHANNELS 3 Zrotation Xrotation Yrotation
					JOINT LeftToeEnd
					{
						OFFSET 0.000000 0.004481 0.054939
						CHANNELS 3 Zrotation Xrotation Yrotation
						End Site
						{
							OFFSET 0.000000 0.004065 0.049835
						}
					}
				}
			}
		}
	}
	JOINT Chest
	{
		OFFSET 0.000000 0.180059 0.000000
		CHANNELS 3 Zrotation Xrotation Yrotation
		JOINT Chest2
		{
			OFFSET 0.000000 0.217572 0.000000
			CHANNELS 3 Zrotation Xrotation Yrotation
			JOINT Chest3
			{
				OFFSET 0.000000 0.048096 0.000000
				CHANNELS 3 Zrotation Xrotation Yrotation


				JOINT LeftCollar
				{
					OFFSET 0.020000 0.048096 0.000000
					CHANNELS 3 Zrotation Xrotation Yrotation
					JOINT LeftShoulder
					{
						OFFSET 0.163469 0.000000 0.000000
						CHANNELS 3 Zrotation Xrotation Yrotation
						JOINT LeftElbow
						{
							OFFSET 0.000000 -0.285389 0.000000
							CHANNELS 3 Zrotation Xrotation Yrotation
							JOINT LeftWrist
							{
								OFFSET 0.000000 -0.275440 0.000000
								CHANNELS 3 Zrotation Xrotation Yrotation
								JOINT LeftFinger0
								{
									OFFSET 0.000000 -0.091899 0.000000
									CHANNELS 3 Zrotation Xrotation Yrotation
									End Site
									{
										OFFSET 0.000000 -0.050000 0.000000
									}
								}
							}
						}
					}
				}
				JOINT RightCollar
				{
					OFFSET -0.020000 0.048096 0.000000
					CHANNELS 3 Zrotation Xrotation Yrotation
					JOINT RightShoulder
					{
						OFFSET -0.163469 0.000000 0.000000
						CHANNELS 3 Zrotation Xrotation Yrotation
						JOINT RightElbow
						{
							OFFSET 0.000000 -0.285389 0.000000
							CHANNELS 3 Zrotation Xrotation Yrotation
							JOINT RightWrist
							{
								OFFSET 0.000000 -0.275440 0.000000
								CHANNELS 3 Zrotation Xrotation Yrotation
								JOINT RightFinger0
								{
									OFFSET 0.000000 -0.091899 0.000000
									CHANNELS 3 Zrotation Xrotation Yrotation
									End Site
									{
										OFFSET 0.000000 -0.050000 0.000000
									}
								}
							}
						}
					}
				}
				JOINT Neck
				{
					OFFSET 0.000000 0.048096 0.000000
					CHANNELS 3 Zrotation Xrotation Yrotation
					JOINT Head
					{
						OFFSET 0.000000 0.162951 0.000000
						CHANNELS 3 Zrotation Xrotation Yrotation
						JOINT HeadTip
						{
							OFFSET 0.000000 0.100000 0.000000
							CHANNELS 3 Zrotation Xrotation Yrotation
							End Site
							{
								OFFSET 0.000000 0.050000 0.000000
							}
						}
					}
				}
			}
		}
	}
}


MOTION
Frames: 13
Frame Time: 0.010000
0.308764 0.941503 -0.024308 4.082698 -0.169403 91.182754 -3.763102 0.146326 -8.330477 0.000000 15.979581 0.000000 10.827821 -11.732542 -10.615606 0.000000 5.599498 0.000000 0.000000 0.000000 0.000000 7.410968 0.907912 4.657629 0.000000 11.622666 0.000000 -14.297794 -8.318007 6.169833 0.000000 7.111289 0.000000 0.000000 0.000000 0.000000 1.428292 -0.523495 -1.483331 0.000000 16.337033 0.000000 0.000000 0.000000 0.000000 11.416418 1.285160 6.337761 65.955645 -9.943743 54.501824 0.000000 -30.482750 0.000000 4.857764 16.776436 -38.239834 0.000000 0.000000 0.000000 -12.685247 1.035279 -4.589327 -62.325948 -4.675770 -49.958363 0.000000 -30.686041 0.000000 -4.196369 13.659111 28.837873 0.000000 0.000000 0.000000 0.000000 0.000000 0.000000 0.386473 3.295756 2.536524 0.000000 0.000000 0.000000 
0.308740 0.941508 -0.024297 4.078622 -0.173728 91.183378 -3.758943 0.137528 -8.348269 0.000000 15.981986 0.000000 10.854816 -11.715044 -10.606136 0.000000 5.578100 0.000000 0.000000 0.000000 0.000000 7.420296 0.898244 4.678623 0.000000 11.631951 0.000000 -14.297389 -8.312721 6.143752 0.000000 7.111774 0.000000 0.000000 0.000000 0.000000 1.430445 -0.527658 -1.481242 0.000000 16.361826 0.000000 0.000000 0.000000 0.000000 11.406084 1.284759 6.341648 65.941069 -9.973242 54.578845 0.000000 -30.479443 0.000000 4.824146 16.675183 -38.320660 0.000000 0.000000 0.000000 -12.669808 1.036309 -4.599633 -62.332074 -4.698236 -49.943877 0.000000 -30.675357 0.000000 -4.178092 13.626492 28.808631 0.000000 0.000000 0.000000 0.000000 0.000000 0.000000 0.457005 3.277510 2.500012 0.000000 0.000000 0.000000 
0.308734 0.941499 -0.024320 4.082674 -0.162562 91.181653 -3.770629 0.137953 -8.320998 0.000000 15.992305 0.000000 10.843209 -11.734584 -10.615912 0.000000 5.586197 0.000000 0.000000 0.000000 0.000000 7.409072 0.904257 4.679851 0.000000 11.626009 0.000000 -14.301955 -8.304050 6.133898 0.000000 7.090353 0.000000 0.000000 0.000000 0.000000 1.418931 -0.518178 -1.482809 0.000000 16.380852 0.000000 0.000000 0.000000 0.000000 11.418080 1.286272 6.342257 65.904350 -9.969787 54.536072 0.000000 -30.505208 0.000000 4.914098 16.690098 -38.258246 0.000000 0.000000 0.000000 -12.671777 1.037533 -4.604306 -62.308528 -4.715147 -49.945256 0.000000 -30.685552 0.000000 -4.173097 13.612098 28.829921 0.000000 0.000000 0.000000 0.000000 0.000000 0.000000 0.496714 3.252166 2.484639 0.000000 0.000000 0.000000 
0.308709 0.941490 -0.024367 4.075265 -0.163803 91.180973 -3.772254 0.118950 -8.320917 0.000000 16.009624 0.000000 10.860217 -11.736619 -10.622491 0.000000 5.583530 0.000000 0.000000 0.000000 0.000000 7.404318 0.892055 4.675772 0.000000 11.634097 0.000000 -14.290665 -8.313377 6.134518 0.000000 7.085096 0.000000 0.000000 0.000000 0.000000 1.428449 -0.520713 -1.510712 0.000000 16.401962 0.000000 0.000000 0.000000 0.000000 11.393449 1.292794 6.388182 65.895379 -10.005330 54.556500 0.000000 -30.502372 0.000000 4.803132 16.599129 -38.323924 0.000000 0.000000 0.000000 -12.679874 1.033984 -4.585611 -62.303827 -4.728563 -49.928963 0.000000 -30.692189 0.000000 -4.160948 13.557566 28.796640 0.000000 0.000000 0.000000 0.000000 0.000000 0.000000 0.513978 3.227988 2.481855 0.000000 0.000000 0.000000 
0.308693 0.941500 -0.024435 4.086496 -0.158377 91.187602 -3.781425 0.126581 -8.318740 0.000000 16.018097 0.000000 10.826658 -11.703821 -10.626606 0.000000 5.497961 0.000000 0.000000 0.000000 0.000000 7.391575 0.903147 4.639005 0.000000 11.629621 0.000000 -14.287421 -8.319728 6.169676 0.000000 7.095236 0.000000 0.000000 0.000000 0.000000 1.434408 -0.502999 -1.504453 0.000000 16.427559 0.000000 0.000000 0.000000 0.000000 11.388787 1.289644 6.375402 65.863783 -10.012891 54.530789 0.000000 -30.569803 0.000000 4.859295 16.719159 -38.237994 0.000000 0.000000 0.000000 -12.681172 1.039979 -4.611595 -62.281988 -4.753159 -49.940812 0.000000 -30.708387 0.000000 -4.170138 13.560093 28.869269 0.000000 0.000000 0.000000 0.000000 0.000000 0.000000 0.552704 3.211782 2.435485 0.000000 0.000000 0.000000 
0.308671 0.941486 -0.024481 4.087230 -0.157178 91.186662 -3.786629 0.123532 -8.328291 0.000000 16.020342 0.000000 10.843730 -11.725453 -10.624397 0.000000 5.574492 0.000000 0.000000 0.000000 0.000000 7.385960 0.894412 4.629268 0.000000 11.645057 0.000000 -14.275532 -8.322657 6.185149 0.000000 7.079238 0.000000 0.000000 0.000000 0.000000 1.439819 -0.494092 -1.478014 0.000000 16.438795 0.000000 0.000000 0.000000 0.000000 11.405846 1.284744 6.341707 65.820109 -10.014528 54.539823 0.000000 -30.599655 0.000000 4.865501 16.747793 -38.257252 0.000000 0.000000 0.000000 -12.666086 1.044109 -4.635499 -62.281280 -4.754739 -49.906046 0.000000 -30.714749 0.000000 -4.188820 13.524645 28.838194 0.000000 0.000000 0.000000 0.000000 0.000000 0.000000 0.607870 3.201805 2.396768 0.000000 0.000000 0.000000 
0.308643 0.941481 -0.024493 4.093758 -0.152309 91.188428 -3.792906 0.119715 -8.329706 0.000000 16.041364 0.000000 10.784568 -11.745879 -10.622090 0.000000 5.633854 0.000000 0.000000 0.000000 0.000000 7.378285 0.897784 4.598366 0.000000 11.646682 0.000000 -14.280686 -8.330863 6.211611 0.000000 7.071485 0.000000 0.000000 0.000000 0.000000 1.433712 -0.478044 -1.520647 0.000000 16.466628 0.000000 0.000000 0.000000 0.000000 11.384227 1.293537 6.397097 65.819975 -10.043605 54.524423 0.000000 -30.589894 0.000000 4.857448 16.714832 -38.249315 0.000000 0.000000 0.000000 -12.675292 1.039587 -4.612064 -62.248095 -4.783032 -49.906361 0.000000 -30.741337 0.000000 -4.198310 13.507354 28.840165 0.000000 0.000000 0.000000 0.000000 0.000000 0.000000 0.626064 3.174164 2.410718 0.000000 0.000000 0.000000 
0.308622 0.941476 -0.024515 4.095754 -0.147322 91.190101 -3.802411 0.117674 -8.353608 0.000000 16.045312 0.000000 10.823784 -11.732339 -10.591831 0.000000 5.586941 0.000000 0.000000 0.000000 0.000000 7.374840 0.887590 4.607978 0.000000 11.667168 0.000000 -14.290195 -8.338865 6.196950 0.000000 7.093504 0.000000 0.000000 0.000000 0.000000 1.432591 -0.471171 -1.525100 0.000000 16.493241 0.000000 0.000000 0.000000 0.000000 11.393411 1.294904 6.398543 65.774722 -10.055653 54.536264 0.000000 -30.609115 0.000000 4.866847 16.714826 -38.264479 0.000000 0.000000 0.000000 -12.674701 1.040358 -4.615689 -62.227916 -4.806081 -49.907228 0.000000 -30.743823 0.000000 -4.223955 13.504689 28.847732 0.000000 0.000000 0.000000 0.000000 0.000000 0.000000 0.660141 3.147891 2.407868 0.000000 0.000000 0.000000 
0.308600 0.941465 -0.024547 4.099769 -0.145981 91.191722 -3.807830 0.110500 -8.351857 0.000000 16.064821 0.000000 10.816200 -11.724836 -10.582394 0.000000 5.555686 0.000000 0.000000 0.000000 0.000000 7.371607 0.887491 4.599147 0.000000 11.671598 0.000000 -14.283926 -8.343902 6.203874 0.000000 7.089223 0.000000 0.000000 0.000000 0.000000 1.438889 -0.456091 -1.541443 0.000000 16.520566 0.000000 0.000000 0.000000 0.000000 11.388824 1.299419 6.423295 65.735302 -10.054514 54.503322 0.000000 -30.656958 0.000000 4.792547 16.692462 -38.229934 0.000000 0.000000 0.000000 -12.674368 1.038304 -4.606743 -62.212101 -4.810776 -49.876180 0.000000 -30.769336 0.000000 -4.192777 13.519258 28.712675 0.000000 0.000000 0.000000 0.000000 0.000000 0.000000 0.682579 3.111510 2.394815 0.000000 0.000000 0.000000 
0.308557 0.941451 -0.024564 4.098144 -0.140736 91.205485 -3.815023 0.106202 -8.373632 0.000000 16.070756 0.000000 10.798340 -11.723856 -10.584798 0.000000 5.569318 0.000000 0.000000 0.000000 0.000000 7.365619 0.869861 4.591208 0.000000 11.690073 0.000000 -14.297424 -8.344911 6.200478 0.000000 7.079568 0.000000 0.000000 0.000000 0.000000 1.433241 -0.446267 -1.558787 0.000000 16.539494 0.000000 0.000000 0.000000 0.000000 11.378081 1.298771 6.426291 65.737904 -10.076833 54.547595 0.000000 -30.641006 0.000000 4.767461 16.728070 -38.258715 0.000000 0.000000 0.000000 -12.662053 1.040697 -4.621932 -62.196833 -4.843498 -49.839397 0.000000 -30.779002 0.000000 -4.174871 13.525144 28.747353 0.000000 0.000000 0.000000 0.000000 0.000000 0.000000 0.730817 3.082493 2.402265 0.000000 0.000000 0.000000 
0.308534 0.941445 -0.024570 4.102540 -0.141133 91.208169 -3.815808 0.102757 -8.376710 0.000000 16.081070 0.000000 10.797018 -11.721749 -10.582411 0.000000 5.555984 0.000000 0.000000 0.000000 0.000000 7.367151 0.864865 4.587181 0.000000 11.704002 0.000000 -14.294794 -8.340290 6.187871 0.000000 7.059215 0.000000 0.000000 0.000000 0.000000 1.433832 -0.438928 -1.560046 0.000000 16.571716 0.000000 0.000000 0.000000 0.000000 11.395250 1.301952 6.432013 65.683361 -10.083473 54.546711 0.000000 -30.676854 0.000000 4.765040 16.736799 -38.300440 0.000000 0.000000 0.000000 -12.647360 1.039737 -4.623209 -62.175438 -4.849954 -49.816974 0.000000 -30.802361 0.000000 -4.129402 13.534379 28.735779 0.000000 0.000000 0.000000 0.000000 0.000000 0.000000 0.767620 3.064749 2.425000 0.000000 0.000000 0.000000 
0.308490 0.941429 -0.024591 4.107273 -0.140439 91.220461 -3.821710 0.095093 -8.415361 0.000000 16.105821 0.000000 10.758683 -11.720497 -10.561453 0.000000 5.592344 0.000000 0.000000 0.000000 0.000000 7.365088 0.845529 4.563572 0.000000 11.736052 0.000000 -14.292705 -8.358713 6.202559 0.000000 7.075939 0.000000 0.000000 0.000000 0.000000 1.439185 -0.415090 -1.574428 0.000000 16.602121 0.000000 0.000000 0.000000 0.000000 11.386993 1.298838 6.421500 65.673607 -10.077329 54.526652 0.000000 -30.666048 0.000000 4.808135 16.664685 -38.262915 0.000000 0.000000 0.000000 -12.642318 1.043716 -4.642723 -62.146130 -4.875706 -49.781415 0.000000 -30.841046 0.000000 -4.108168 13.599038 28.765128 0.000000 0.000000 0.000000 0.000000 0.000000 0.000000 0.795899 2.994643 2.418327 0.000000 0.000000 0.000000 
0.308457 0.941435 -0.024611 4.111281 -0.128167 91.222876 -3.831921 0.084901 -8.380941 0.000000 16.129385 0.000000 10.769577 -11.733990 -10.589379 0.000000 5.572688 0.000000 0.000000 0.000000 0.000000 7.355895 0.846833 4.597003 0.000000 11.737195 0.000000 -14.291154 -8.343917 6.166151 0.000000 7.069182 0.000000 0.000000 0.000000 0.000000 1.427590 -0.391853 -1.588047 0.000000 16.619433 0.000000 0.000000 0.000000 0.000000 11.349293 1.306469 6.480746 65.692921 -10.136873 54.534058 0.000000 -30.673477 0.000000 4.739823 16.687552 -38.233920 0.000000 0.000000 0.000000 -12.621721 1.042694 -4.645986 -62.130660 -4.896966 -49.738447 0.000000 -30.882127 0.000000 -4.058362 13.633742 28.731914 0.000000 0.000000 0.000000 0.000000 0.000000 0.000000 0.821605 2.959559 2.448398 0.000000 0.000000 0.000000 
